<?xml version="1.0" encoding="UTF-8"?>
<svg id="Layer_2" data-name="Layer 2" xmlns="http://www.w3.org/2000/svg" viewBox="0 0 120 102.91">
  <defs>
    <style>
      .cls-1 {
        fill: #fff;
      }

      .cls-2 {
        fill: #4167b0;
        stroke: #231f20;
        stroke-miterlimit: 10;
        stroke-width: .6px;
      }

      .cls-3 {
        letter-spacing: -.03em;
      }

      .cls-4 {
        letter-spacing: 0em;
      }

      .cls-5 {
        fill: #ada291;
      }

      .cls-6 {
        letter-spacing: 0em;
      }

      .cls-7 {
        fill: #231f20;
        font-family: MenckenStdHeadNarrow-Regular, 'Mencken Std Head Narrow';
        font-size: 48px;
      }
    </style>
  </defs>
  <g id="Layer_1-2" data-name="Layer 1">
    <path class="cls-5" d="M89.62,37.65c-.21-.09-.44-.11-.66-.06-4.71,1-12.8,4.44-17.21,4.9,.78-3.82-2.02-9.19-2.02-9.19l2.38-3.65c.21-.32,.12-.76-.21-.97l-3.7-2.36-6.18-8.65s-.45-1.01,.69-1.49c6.71-.26,3.06-4.7,3.06-4.7,0,0-1.16-.8-4.93-3.21-5.02-.43-3.3,3.75-2.77,5.02-.07,1.15-1.22,1.11-1.22,1.11l-9.53-1.49-4.59-2.88c-.34-.22-.8-.11-1.01,.24l-1.98,3.21s-1.48,.09-4.09-.57c-.6-.26-3.46-9.67-9.33-12.76-.32-.17-.7-.21-1.05-.15C11.37,2.6,9,11.83,8.39,17.12c-.05,.47-.02,.95,.11,1.41,1.98,6.92,9.64,21.61,10.98,23.24,1.45,1.6,0,0,1.3,5.05,12.17,11.73,27.36,17.83,27.36,17.83l3.67-1.81s.87-.22,6.36-1.1c10.42,5.35,25.32-16.57,32.11-17.26,1.49-.47,5.26,1.2,6.31-.62,.3-2.22-3.58-4.83-6.97-6.2ZM18.95,30.7c-10.84-11.98-7.7-17.2-3.87-22.35,.42-.56,.95-1.07,1.56-1.47,11.98-8.02,14.37,3.43,11.47,9.23-.28,.56-.45,1.1-.78,1.76-.82,1.63-3.51,5.51-8.38,12.83Z"/>
    <path class="cls-2" d="M106.85,67.62c0,5.66-4.59,10.25-10.25,10.25s-10.25-4.59-10.25-10.25,10.25-22.1,10.25-22.1c0,0,10.25,16.44,10.25,22.1Z"/>
    <path class="cls-1" d="M103.97,61.7s3.81,7.13-2.38,13.5c1.7-3.77,3.73-6.12,2.38-13.5Z"/>
    <text class="cls-7" transform="translate(0 77.13)"><tspan class="cls-3" x="0" y="0">T</tspan><tspan class="cls-6" x="19.06" y="0">e</tspan><tspan class="cls-4" x="35.76" y="0" xml:space="preserve">asp  t</tspan></text>
  </g>
</svg>